<svg id="visual" viewBox="0 0 1920 1080" width="1920" height="1080" xmlns="http://www.w3.org/2000/svg" xmlns:xlink="http://www.w3.org/1999/xlink" version="1.1"><rect x="0" y="0" width="1920" height="1080" fill="#1f1f1f"></rect><path d="M0 813L45.7 815.3C91.3 817.7 182.7 822.3 274.2 815.2C365.7 808 457.3 789 548.8 806C640.3 823 731.7 876 823 874.5C914.3 873 1005.7 817 1097 801.8C1188.3 786.7 1279.7 812.3 1371.2 838C1462.7 863.7 1554.3 889.3 1645.8 897.3C1737.3 905.3 1828.7 895.7 1874.3 890.8L1920 886L1920 1081L1874.3 1081C1828.7 1081 1737.3 1081 1645.8 1081C1554.3 1081 1462.7 1081 1371.2 1081C1279.7 1081 1188.3 1081 1097 1081C1005.7 1081 914.3 1081 823 1081C731.7 1081 640.3 1081 548.8 1081C457.3 1081 365.7 1081 274.2 1081C182.7 1081 91.3 1081 45.7 1081L0 1081Z" fill="#00bfe8" stroke-linecap="round" stroke-linejoin="miter"></path></svg>